#!OML:ASF F:\VICON\USERDATA\INSTALL\rory3\rory3.ASF
:FULLY-SPECIFIED
:DEGREES
242
root 4.69841 17.6833 -3.69088 -2.48953 -13.5039 4.04654
lowerback 23.5537 -3.37444 -4.90415
upperback 3.94011 -5.08964 6.16722
thorax -7.69024 -2.30533 11.2578
lowerneck -10.7093 -0.836651 -0.820047
upperneck 25.1075 0.381882 -6.15587
head 9.71916 -0.633091 -1.97143
rclavicle -1.13705e-013 7.95139e-014
rhumerus -60.9881 -45.4365 -18.6302
rradius 96.3961
rwrist -44.9205
rhand -0.41152 -2.40465
rfingers 7.12502
rthumb 25.1962 -30.7615
lclavicle -1.13705e-013 7.95139e-014
lhumerus -53.4048 12.2297 72.4145
lradius 51.7609
lwrist 10.8678
lhand -13.0304 47.7438
lfingers 7.12502
lthumb 13.0639 77.3146
rfemur -31.6928 6.28108 17.7386
rtibia 37.0568
rfoot -0.638337 -10.3275
rtoes 18.3427
lfemur 12.1602 -2.34209 -28.8745
ltibia 30.3627
lfoot -1.21749 -4.1878
ltoes -21.7114
243
root 4.71264 17.6408 -3.9207 -1.82938 -13.139 3.23258
lowerback 23.6963 -3.44985 -4.60253
upperback 3.66166 -5.0862 6.39556
thorax -8.08253 -2.27212 11.3885
lowerneck -10.6533 -0.811343 -0.785423
upperneck 24.8583 0.342343 -5.9214
head 9.61697 -0.615445 -1.89341
rclavicle -1.03368e-014 3.18055e-015
rhumerus -60.0332 -45.4182 -18.0864
rradius 97.1342
rwrist -44.5858
rhand 0.875162 -2.17852
rfingers 7.12502
rthumb 26.4284 -30.3561
lclavicle -1.03368e-014 3.18055e-015
lhumerus -53.0257 12.2177 72.3102
lradius 51.3296
lwrist 10.6435
lhand -12.8232 48.4118
lfingers 7.12502
lthumb 13.2637 77.9697
rfemur -32.5872 6.65039 18.398
rtibia 36.1874
rfoot -0.0913906 -11.2577
rtoes 17.7327
lfemur 12.1424 -3.36073 -28.2865
ltibia 29.1171
lfoot -3.37328 -4.24504
ltoes -26.4173
244
root 4.73247 17.6103 -4.12613 -1.70294 -12.5899 3.61869
lowerback 23.7049 -3.51373 -5.28272
upperback 3.48657 -5.35081 6.24841
thorax -8.17419 -2.36876 11.7085
lowerneck -10.596 -0.693213 -0.699678
upperneck 24.7342 0.434017 -5.71465
head 9.56328 -0.538827 -1.82245
rclavicle 6.36111e-014 -2.06736e-014
rhumerus -58.8602 -45.2857 -17.8148
rradius 97.9272
rwrist -44.0401
rhand 2.23724 -1.97689
rfingers 7.12502
rthumb 27.7315 -29.9518
lclavicle 6.36111e-014 -2.06736e-014
lhumerus -52.7843 12.3906 72.0896
lradius 51.2662
lwrist 10.4043
lhand -12.5176 48.8119
lfingers 7.12502
lthumb 13.5582 78.3505
rfemur -33.0726 6.52751 17.7653
rtibia 35.4512
rfoot -0.217651 -12.0143
rtoes 16.859
lfemur 12.3133 -4.1282 -28.9506
ltibia 27.9629
lfoot -5.81023 -3.4504
ltoes -31.1505
245
root 4.74562 17.5854 -4.34464 -1.4925 -12.1664 3.61392
lowerback 23.7906 -3.49716 -5.67966
upperback 3.37828 -5.43423 6.19586
thorax -8.28782 -2.38484 11.9263
lowerneck -10.825 -0.672588 -0.494007
upperneck 24.6796 0.398717 -5.59534
head 9.58493 -0.523988 -1.82072
rclavicle 5.1684e-015 -2.38542e-014
rhumerus -57.7701 -45.3726 -17.6376
rradius 98.6785
rwrist -42.7298
rhand 3.05399 -1.61653
rfingers 7.12502
rthumb 28.5121 -29.4631
lclavicle 5.1684e-015 -2.38542e-014
lhumerus -52.4196 12.3408 71.9585
lradius 51.4436
lwrist 10.124
lhand -12.5782 48.6541
lfingers 7.12502
lthumb 13.4998 78.1965
rfemur -33.5246 6.60892 17.579
rtibia 34.6557
rfoot -0.589008 -12.7793
rtoes 15.5743
lfemur 12.2529 -4.53372 -29.0194
ltibia 27.0896
lfoot -8.08552 -2.21766
ltoes -32.3801
246
root 4.76011 17.5809 -4.55377 -1.40039 -12.134 3.54522
lowerback 23.9109 -3.31515 -5.95669
upperback 3.32728 -5.28093 6.06542
thorax -8.43187 -2.29027 11.9164
lowerneck -10.3046 -0.7332 -0.720072
upperneck 24.1718 0.157978 -4.88695
head 9.29856 -0.562489 -1.54851
rclavicle -2.06736e-014 -1.74931e-014
rhumerus -57.0017 -45.6366 -17.2022
rradius 99.1863
rwrist -41.0798
rhand 4.03475 -1.02214
rfingers 7.12502
rthumb 29.4489 -28.7078
lclavicle -2.06736e-014 -1.74931e-014
lhumerus -51.9873 11.8914 71.9497
lradius 51.6471
lwrist 10.008
lhand -12.5196 49.2207
lfingers 7.12502
lthumb 13.5562 78.7594
rfemur -33.7545 6.67664 17.6281
rtibia 33.8823
rfoot -1.07803 -13.2775
rtoes 12.6332
lfemur 12.1288 -4.69643 -29.0143
ltibia 26.2846
lfoot -9.47438 -1.28568
ltoes -30.2105
247
root 4.78218 17.5813 -4.762 -1.2476 -12.0022 3.60884
lowerback 23.9627 -3.18798 -6.15586
upperback 3.32537 -5.19033 5.80161
thorax -8.49152 -2.23769 11.7053
lowerneck -10.7505 -0.759478 -0.327934
upperneck 24.2521 -0.0242294 -4.54253
head 9.4036 -0.578907 -1.52122
rclavicle -7.43455e-014 6.04305e-014
rhumerus -56.134 -45.9751 -17.0158
rradius 99.5701
rwrist -38.8916
rhand 5.52743 -0.486631
rfingers 7.12502
rthumb 30.8729 -27.9122
lclavicle -7.43455e-014 6.04305e-014
lhumerus -51.3359 11.49 71.8403
lradius 51.6493
lwrist 9.7789
lhand -12.4102 49.6046
lfingers 7.12502
lthumb 13.6616 79.1362
rfemur -33.9442 6.60352 17.4674
rtibia 32.9065
rfoot -2.00995 -13.8913
rtoes 9.92301
lfemur 11.5672 -4.7047 -29.0524
ltibia 25.8171
lfoot -10.7228 -0.625887
ltoes -26.4681
248
root 4.80647 17.5756 -4.98114 -1.01703 -11.5121 4.03929
lowerback 24.0444 -3.0321 -6.45591
upperback 3.33442 -5.10121 5.39623
thorax -8.55883 -2.18311 11.3908
lowerneck -11.4899 -0.995661 0.0947843
upperneck 24.3831 -0.49929 -4.2218
head 9.57547 -0.731183 -1.54428
rclavicle 2.18663e-014 1.59028e-015
rhumerus -55.7549 -46.9458 -16.6727
rradius 100.111
rwrist -36.8871
rhand 6.70622 -0.181961
rfingers 7.12502
rthumb 31.996 -27.3887
lclavicle 2.18663e-014 1.59028e-015
lhumerus -50.1899 10.7723 71.8624
lradius 51.5548
lwrist 9.62413
lhand -12.7544 48.8658
lfingers 7.12502
lthumb 13.33 78.4194
rfemur -34.295 5.8729 16.9624
rtibia 31.9103
rfoot -3.25856 -14.2048
rtoes 6.70825
lfemur 10.7981 -4.68035 -29.394
ltibia 25.3978
lfoot -12.0048 0.241623
ltoes -26.2437
249
root 4.82392 17.5716 -5.2018 -0.923931 -11.3797 3.73563
lowerback 24.3527 -2.99622 -6.40347
upperback 3.14771 -5.06032 5.30354
thorax -8.95617 -2.12777 11.2925
lowerneck -10.8175 -0.899239 0.0011045
upperneck 24.0817 -0.454513 -3.84087
head 9.34384 -0.66884 -1.37966
rclavicle -4.29375e-014 2.54444e-014
rhumerus -54.7169 -46.5308 -16.7861
rradius 100.673
rwrist -34.7334
rhand 8.08145 0.0824845
rfingers 7.12502
rthumb 33.3045 -26.853
lclavicle -4.29375e-014 2.54444e-014
lhumerus -50.2244 10.6298 71.6485
lradius 51.9033
lwrist 9.29199
lhand -12.7346 48.6237
lfingers 7.12502
lthumb 13.349 78.1761
rfemur -34.311 5.52874 17.3685
rtibia 30.8985
rfoot -4.99801 -14.5404
rtoes 5.99305
lfemur 10.3798 -4.25097 -28.9307
ltibia 24.9691
lfoot -13.1918 1.17243
ltoes -26.3894
250
root 4.84312 17.5668 -5.41664 -1.04135 -11.2882 3.99294
lowerback 24.7811 -2.8008 -6.71298
upperback 3.06559 -4.93948 4.95137
thorax -9.30977 -2.03231 11.0841
lowerneck -10.7009 -0.612085 0.264932
upperneck 23.9831 -0.202263 -3.44986
head 9.29191 -0.482989 -1.2595
rclavicle 3.29983e-014 -4.13472e-014
rhumerus -54.0261 -46.1106 -16.7539
rradius 101.106
rwrist -32.0983
rhand 9.69438 0.75269
rfingers 7.12502
rthumb 34.8364 -25.8414
lclavicle 3.29983e-014 -4.13472e-014
lhumerus -49.9276 10.2331 71.4384
lradius 52.2614
lwrist 9.05391
lhand -12.8745 48.3774
lfingers 7.12502
lthumb 13.2142 77.9386
rfemur -34.1879 4.92645 17.2651
rtibia 29.8548
rfoot -6.81541 -14.8059
rtoes 5.72904
lfemur 10.035 -3.58286 -29.0165
ltibia 24.5046
lfoot -14.0702 1.6618
ltoes -23.3379
251
root 4.86592 17.5699 -5.6245 -0.990865 -11.209 4.44966
lowerback 24.7993 -2.66556 -7.07188
upperback 3.15009 -4.90387 4.50816
thorax -9.2429 -2.01687 10.7605
lowerneck -10.5011 -0.686561 0.10952
upperneck 23.4067 -0.435669 -2.80052
head 9.05076 -0.528152 -1.02679
rclavicle -4.77083e-014 -3.18055e-015
rhumerus -52.7452 -45.8089 -17.7705
rradius 101.738
rwrist -30.2442
rhand 9.28008 0.795894
rfingers 7.12502
rthumb 34.4432 -25.8884
lclavicle -4.77083e-014 -3.18055e-015
lhumerus -49.1274 9.97565 71.2433
lradius 52.3133
lwrist 8.88423
lhand -13.0983 47.94
lfingers 7.12502
lthumb 12.9985 77.5151
rfemur -34.1623 4.23248 16.9303
rtibia 28.6916
rfoot -8.30462 -15.1434
rtoes 3.87187
lfemur 9.28927 -3.03739 -29.3558
ltibia 24.2573
lfoot -14.9508 1.97731
ltoes -17.9719
